<svg width="20" height="18" viewBox="0 0 20 18" fill="none" xmlns="http://www.w3.org/2000/svg">
<path d="M20 2.79878C19.2562 3.12503 18.4637 3.34128 17.6375 3.44628C18.4875 2.93878 19.1362 2.14128 19.4412 1.18003C18.6487 1.65253 17.7737 1.98628 16.8412 2.17253C16.0887 1.37128 15.0162 0.875031 13.8462 0.875031C11.5762 0.875031 9.74874 2.71753 9.74874 4.97628C9.74874 5.30128 9.77624 5.61378 9.84374 5.91128C6.43499 5.74503 3.41875 4.11128 1.3925 1.62253C1.03875 2.23628 0.831249 2.93878 0.831249 3.69503C0.831249 5.11503 1.5625 6.37378 2.6525 7.10252C1.99375 7.09002 1.3475 6.89877 0.799999 6.59753C0.799999 6.61003 0.799999 6.62627 0.799999 6.64252C0.799999 8.63502 2.22125 10.29 4.085 10.6713C3.75125 10.7625 3.3875 10.8063 3.01 10.8063C2.7475 10.8063 2.4825 10.7913 2.23375 10.7363C2.765 12.36 4.2725 13.5538 6.06499 13.5925C4.67 14.6838 2.89875 15.3413 0.981249 15.3413C0.644999 15.3413 0.3225 15.3263 0 15.285C1.81625 16.4563 3.96875 17.125 6.28999 17.125C13.835 17.125 17.96 10.875 17.96 5.45753C17.96 5.27628 17.9537 5.10128 17.945 4.92753C18.7587 4.35003 19.4425 3.62878 20 2.79878Z" fill="white"/>
</svg>
